HIERARCHY
ROOT Hips
{
  OFFSET 13.6774 106.653 -34.4427
  CHANNELS 6 Xposition Yposition Zposition Zrotation Xrotation Yrotation
  JOINT ToSpine
  {
    OFFSET -2.69724 7.43032 -0.144315
    CHANNELS 3 Zrotation Xrotation Yrotation
    JOINT Spine
    {
      OFFSET -0.0310711 10.7595 1.96963
      CHANNELS 3 Zrotation Xrotation Yrotation
      JOINT Spine1
      {
        OFFSET 19.9056 3.91189 0.764692
        CHANNELS 3 Zrotation Xrotation Yrotation
        JOINT Neck
        {
          OFFSET 25.9749 7.03908 -0.130764
          CHANNELS 3 Zrotation Xrotation Yrotation
          JOINT Head
          {
            OFFSET 9.52751 0.295786 -0.907742
            CHANNELS 3 Zrotation Xrotation Yrotation
            End Site
            {
              OFFSET 16.4037 0.713936 2.7358
            }
          }
        }
        JOINT LeftShoulder
        {
          OFFSET 17.7449 4.33886 11.7777
          CHANNELS 3 Zrotation Xrotation Yrotation
          JOINT LeftArm
          {
            OFFSET 0.911315 1.27913 9.80584
            CHANNELS 3 Zrotation Xrotation Yrotation
            JOINT LeftForeArm
            {
              OFFSET 28.6126 1.18197 -3.53199
              CHANNELS 3 Zrotation Xrotation Yrotation
              JOINT LeftHand
              {
                OFFSET 27.5088 0.0218783 0.327423
                CHANNELS 3 Zrotation Xrotation Yrotation
                End Site
                {
                  OFFSET 18.6038 -0.000155887 0.382096
                }
              }
            }
          }
        }
        JOINT RightShoulder
        {
          OFFSET 17.1009 2.89543 -12.2328
          CHANNELS 3 Zrotation Xrotation Yrotation
          JOINT RightArm
          {
            OFFSET 1.4228 0.178766 -10.211
            CHANNELS 3 Zrotation Xrotation Yrotation
            JOINT RightForeArm
            {
              OFFSET 28.733 1.87905 2.64907
              CHANNELS 3 Zrotation Xrotation Yrotation
              JOINT RightHand
              {
                OFFSET 27.4588 0.290562 -0.101845
                CHANNELS 3 Zrotation Xrotation Yrotation
                End Site
                {
                  OFFSET 17.8396 -0.255518 -0.000602873
                }
              }
            }
          }
        }
      }
    }
  }
  JOINT LeftUpLeg
  {
    OFFSET -5.61296 -2.22332 -10.2353
    CHANNELS 3 Zrotation Xrotation Yrotation
    JOINT LeftLeg
    {
      OFFSET 2.56703 -44.7417 -7.93097
      CHANNELS 3 Zrotation Xrotation Yrotation
      JOINT LeftFoot
      {
        OFFSET 3.16933 -46.5642 -3.96578
        CHANNELS 3 Zrotation Xrotation Yrotation
        JOINT LeftToeBase
        {
          OFFSET 0.346054 -6.02161 12.8035
          CHANNELS 3 Zrotation Xrotation Yrotation
          End Site
          {
            OFFSET 0.134235 -1.35082 5.13018
          }
        }
      }
    }
  }
  JOINT RightUpLeg
  {
    OFFSET -5.7928 -1.72406 10.6446
    CHANNELS 3 Zrotation Xrotation Yrotation
    JOINT RightLeg
    {
      OFFSET -2.57161 -44.7178 -7.85259
      CHANNELS 3 Zrotation Xrotation Yrotation
      JOINT RightFoot
      {
        OFFSET -3.10148 -46.5936 -4.03391
        CHANNELS 3 Zrotation Xrotation Yrotation
        JOINT RightToeBase
        {
          OFFSET -0.0828122 -6.13587 12.8035
          CHANNELS 3 Zrotation Xrotation Yrotation
          End Site
          {
            OFFSET -0.131328 -1.35082 5.13018
          }
        }
      }
    }
  }
}
MOTION
Frames: 12
Frame Time: 0.03333333333333333
0.0000 93.1000 0.0000 54.9349 -66.1764 -36.6682 -71.1348 -0.0182 88.1451 73.3330 69.6073 3.9110 4.1533 16.1745 12.2036 -126.2034 30.3353 174.7623 -169.6637 68.8506 -149.8432 0.2370 -4.6415 4.2882 -110.2730 33.1612 -157.9719 34.8698 13.1412 -71.7555 0.0014 -0.0188 -0.1254 -2.4770 8.0974 38.8239 -51.7018 -29.0392 108.9163 21.3317 -1.3471 87.6625 0.4197 -0.2259 0.0232 -54.8331 5.1670 105.9034 -5.4206 54.6361 -7.3172 -0.4535 -25.0647 -3.3588 6.5897 -17.8015 23.7796 -27.1738 -11.8623 104.3080 1.5274 35.2985 8.3152 0.0451 10.4480 -0.4813 1.1704 -6.9502 -4.4604 
0.0000 93.1000 0.0000 60.0769 -60.6940 -30.4336 -71.0073 0.3129 88.2868 73.6138 70.5482 5.5488 4.9161 17.3843 11.3197 -127.8433 30.0869 174.6704 -174.8755 68.9144 -144.7927 0.2992 -8.4568 1.7758 -97.0436 37.0779 -165.1145 22.6700 7.3048 -71.7289 -0.1889 0.2834 0.0704 -2.0481 7.7074 37.2476 -59.0239 -27.6553 109.9434 17.8361 -0.4702 90.1633 0.7607 -0.5046 0.4188 -55.9246 6.3847 101.7665 -4.8709 51.5239 -10.9546 -0.7376 -22.8234 -3.5910 6.8306 -16.9678 22.5305 -30.8186 -15.0476 97.6990 -1.3818 30.6267 15.3049 2.2635 14.6071 -0.4823 -0.1123 -4.4531 -2.6792 
0.0000 93.1000 0.0000 62.9197 -55.1056 -24.9932 -71.1239 0.3719 88.2532 72.5047 70.8149 7.2375 5.5815 18.1437 10.9705 -128.8800 30.2563 173.9890 -177.4986 69.8620 -145.1390 0.4465 -11.8172 -1.5107 -82.4973 36.4373 -171.3339 14.1320 3.4922 -76.0128 -0.2526 0.1276 0.1706 -1.8735 7.9003 34.2394 -68.1239 -28.4870 110.4984 14.2067 -0.3370 91.3845 0.7423 -0.3223 0.2630 -55.2365 7.3556 97.8340 -4.3971 48.1050 -6.5860 -1.0420 -22.6127 -3.2421 5.3168 -12.6215 9.6263 -33.6590 -17.2447 91.5111 -2.6097 28.8069 23.4110 3.0681 15.8157 -0.9088 1.2601 -12.4889 -3.8190 
0.0000 93.1000 0.0000 65.8565 -49.7391 -20.8372 -71.1823 0.3173 87.9887 71.5190 70.8439 9.3792 6.2286 18.9973 8.0135 -127.6552 29.9942 168.9065 -175.9242 69.7653 -147.5437 0.2715 -15.1838 -5.8917 -71.8739 33.6152 -172.9770 12.5297 1.9577 -79.8092 -0.3734 0.0194 0.1934 -1.7043 8.2580 30.5764 -80.4355 -29.2284 108.6194 10.9782 -0.4010 93.6726 0.2352 -0.2093 0.3638 -55.1367 8.4365 94.8548 -4.0048 45.2433 -9.4267 -1.4908 -19.5766 -2.6271 5.6215 -13.8719 10.5299 -36.7353 -18.5620 88.2380 -1.9374 28.0695 15.7653 0.3366 14.2291 -0.6787 1.4225 -13.3741 5.2380 
0.0000 93.1000 0.0000 65.8986 -44.2420 -19.3626 -71.1697 2.5410 87.9897 71.5600 71.2153 9.0668 6.6377 19.7244 5.8737 -127.9465 30.0559 167.5996 -178.0318 69.6047 -145.4983 2.4291 -16.7799 -9.7337 -62.7395 29.8615 -168.9148 15.9853 0.4970 -85.2399 0.4316 -2.4927 -0.1956 -1.8198 8.3814 28.1094 -91.7498 -28.4747 104.7367 8.9756 1.4345 95.2804 -0.0272 2.8191 -0.3380 -53.0765 9.3676 92.0228 -4.4812 42.3848 -11.0062 -1.4674 -15.3349 -0.8614 7.0798 -16.8584 10.4601 -38.7779 -20.7437 83.6261 -2.3196 27.4475 14.9206 1.3884 12.1012 -0.8355 1.2468 -16.0045 -0.0224 
0.0000 93.1000 0.0000 67.2392 -39.0985 -17.3977 -71.4968 1.1213 87.9110 75.5450 71.2200 6.4477 5.0543 19.7426 4.5725 -126.8196 29.4502 167.0376 178.4998 70.1579 -142.6369 0.4537 -18.2418 -15.0518 -57.5507 24.1687 -161.2127 18.3080 0.0321 -88.8199 0.3573 -0.0731 0.1676 -1.2084 8.0055 29.2510 -102.9980 -23.1384 98.3647 10.8128 0.8994 95.5614 1.2845 -0.0853 0.6087 -50.8821 11.1404 89.8444 -3.6917 40.8058 -11.4850 -2.0261 -12.5019 -2.7006 5.7843 -15.4422 7.5097 -39.3004 -21.5244 81.9188 -1.1158 29.0273 8.0429 0.2586 7.2125 0.5934 1.9585 -13.8162 1.8282 
0.0000 93.1000 0.0000 67.6008 -34.4750 -15.3536 -71.5082 0.2910 87.5970 79.1357 71.8052 2.9323 3.9457 19.9070 4.2953 -125.6979 30.1561 164.9935 176.0887 70.9802 -138.7512 -0.1525 -18.2017 -19.2389 -55.4295 20.6245 -153.1167 18.4878 -0.4256 -90.0131 0.0103 0.0212 0.0381 -1.7456 8.2090 30.0459 -111.7585 -16.6803 94.8837 12.6846 0.5906 95.8835 0.5829 -0.1837 0.5518 -48.1807 12.7691 91.5941 -3.8543 40.9257 -12.8182 -3.6882 -10.8354 -1.8792 5.2635 -14.3251 10.7873 -41.0382 -21.3492 80.9032 0.1411 30.0415 3.2501 -1.6873 4.4332 0.2092 1.1294 -13.8710 3.4647 
0.0000 93.1000 0.0000 67.6879 -30.6669 -13.2614 -71.2607 0.3769 87.6849 84.3146 71.9617 -2.1318 2.9307 20.1817 4.8347 -124.8808 31.0345 163.0800 169.2227 71.2743 -132.3304 -0.1041 -18.0376 -23.9481 -54.0549 18.6163 -144.7812 20.7423 -0.7461 -90.0888 -0.1413 -0.1658 -0.1869 -1.9126 8.1254 30.5788 -118.0955 -10.6017 92.2247 13.3219 0.4482 94.5249 0.5135 0.0496 0.2635 -45.0676 15.3416 93.7702 -4.4118 42.7305 -12.4815 -4.0731 -10.2300 -1.6641 4.7082 -13.6003 14.4800 -41.8582 -20.4482 80.0649 -0.1384 33.2572 2.2860 -2.3291 1.0917 0.3061 1.2676 -12.8121 0.6236 
0.0000 93.1000 0.0000 67.8612 -26.9661 -10.8728 -71.2017 0.5932 87.5634 88.6329 71.7201 -6.2605 2.2289 20.0400 5.2998 -124.9066 31.7442 161.4727 167.4980 72.6329 -132.7840 0.0069 -17.4508 -25.6081 -53.7910 18.1742 -139.9837 25.1293 0.0182 -89.0606 0.1168 -0.1658 -0.4063 -1.8382 7.7816 33.0285 -122.9498 -3.5689 90.5809 12.5619 -0.3676 91.4126 0.5532 0.0482 0.2561 -42.0005 16.9763 94.6812 -5.0818 46.7077 -13.6872 -4.7167 -10.3805 -1.8057 4.8331 -13.8372 16.2180 -42.0465 -20.1438 78.7829 0.8836 34.7952 -0.9240 -2.4014 -0.9444 0.4803 1.1658 -11.9266 0.7337 
0.0000 93.1000 0.0000 67.6453 -24.6925 -9.6555 -71.1573 0.3888 87.6543 90.2946 71.8160 -7.5640 2.1837 20.1094 5.5120 -124.7669 32.0953 158.7853 171.0418 73.8663 -135.8914 -0.0255 -16.9980 -25.9695 -54.0382 20.1950 -137.9640 26.4435 0.8237 -87.7469 -0.2552 -0.1825 -0.1423 -2.2492 7.6325 35.3765 -125.7643 1.4739 91.2396 12.9578 -0.9887 88.4290 0.0982 0.1196 0.1693 -39.6181 16.7297 95.2664 -5.2988 49.7854 -16.1866 -4.9571 -11.6499 -1.6839 5.2042 -14.6173 15.7183 -40.9964 -19.1759 78.0452 0.5529 35.7796 -1.9001 -3.2180 -2.9794 0.3671 1.0036 -12.3860 -0.8791 
0.0000 93.1000 0.0000 67.6017 -23.5349 -8.9883 -71.1536 0.3266 87.8368 89.4025 71.9859 -7.6956 2.4531 20.1371 6.5694 -123.5007 32.1617 155.5140 173.8219 75.0086 -137.3553 -0.0542 -16.5794 -25.4990 -53.5546 22.0266 -137.0881 23.3750 1.1573 -84.8438 0.0186 0.0414 -0.1263 -2.2974 7.1022 37.8529 -127.6064 5.1666 90.9190 13.1412 -2.2258 82.5514 0.1827 -0.0937 0.2728 -39.0553 16.4963 95.8304 -5.7288 50.2663 -16.4219 -4.7780 -13.3143 -2.0263 4.6436 -13.0119 13.2102 -39.8777 -19.2183 77.4184 0.9714 37.6791 -2.7774 -4.8688 -4.1027 0.7174 1.3452 -12.2855 -2.9764 
0.0000 93.1000 0.0000 66.9759 -22.4880 -7.8017 -71.2388 -0.0812 87.8846 87.7245 71.7345 -5.2604 3.0735 19.9834 7.4293 -122.0806 32.5210 153.7255 173.4328 75.7646 -137.1182 -0.1457 -16.5094 -26.0033 -52.9476 23.6411 -135.8044 24.5481 1.7116 -83.7685 -0.1218 -0.2902 -0.1336 -2.9193 7.2460 39.9800 -128.5003 6.6714 91.9719 13.0517 -3.5514 76.6586 -0.1831 0.2400 -0.3518 -39.2482 16.2674 94.8694 -4.8946 47.7938 -13.4620 -4.4167 -14.5942 -1.5231 3.6540 -10.5548 9.2801 -40.0523 -19.0460 75.7829 1.5254 37.9950 -3.3841 -5.3612 -4.1313 0.0482 0.9258 -13.1075 -1.5729 
